PathFileType	4	(X/Y/Z)	Patient4_TMGait_0pt4_01_right_07.trc.trc
DataRate	CameraRate	NumFrames	NumMarkers	Units	OrigDataRate	OrigDataStartFrame	OrigNumFrames
74.468085106383	74.468085106383	5	33	mm	74.468085106383	36	       141
Frame#	Time	Sacral			L.Shoulder			Chest			R.Shoulder			Neck			R.ASIS			L.ASIS			R.Thigh.Superior			R.Thigh.Lateral			R.Thigh.Inferior			R.Patella			L.Thigh.Superior			L.Thigh.Lateral			L.Thigh.Inferior			L.Patella			L.Shank.Superior			L.Shank.Lateral			L.Shank.Inferior			R.Shank.Superior			R.Shank.Lateral			R.Shank.Inferior			R.Heel			R.Midfoot.Superior			R.Midfoot.Lateral			R.Toe			L.Heel			L.Midfoot.Lateral			L.Midfoot.Superior			L.Toe			L.Elbow			L.Wrist			R.Elbow			R.Wrist			
		X1	Y1	Z1	X2	Y2	Z2	X3	Y3	Z3	X4	Y4	Z4	X5	Y5	Z5	X6	Y6	Z6	X7	Y7	Z7	X8	Y8	Z8	X9	Y9	Z9	X10	Y10	Z10	X11	Y11	Z11	X12	Y12	Z12	X13	Y13	Z13	X14	Y14	Z14	X15	Y15	Z15	X16	Y16	Z16	X17	Y17	Z17	X18	Y18	Z18	X19	Y19	Z19	X20	Y20	Z20	X21	Y21	Z21	X22	Y22	Z22	X23	Y23	Z23	X24	Y24	Z24	X25	Y25	Z25	X26	Y26	Z26	X27	Y27	Z27	X28	Y28	Z28	X29	Y29	Z29	X30	Y30	Z30	X31	Y31	Z31	X32	Y32	Z32	X33	Y33	Z33	

36	9.130000000000	773.294753625553	998.149906647001	497.688521294320	946.531766919129	1430.203579163329	313.746456936563	1038.705834984002	1371.140253910978	483.838029796427	939.552464611633	1443.181597621815	650.153841632349	915.433721061258	1495.085833931588	467.973171831880	1002.583160422914	945.678878525260	624.858280699108	996.997128998299	964.554554644134	349.210497474323	1058.348696934979	748.613618409811	592.888342014423	986.426865368374	634.925140994419	657.701127686945	1065.984243025079	587.271724995060	576.622774619490	1072.143998881221	500.535791980271	584.602780696770	1020.767592499249	737.601140774957	372.563164619283	918.005177856557	630.313337870893	309.040143736022	995.069856012156	540.789196384550	366.905541379772	984.278829507936	461.059834562691	366.476833191624	927.053613506046	401.616386511899	360.842943984946	797.658051029579	329.830999835380	315.694146431602	811.484092826111	201.725700373748	375.103348273878	1049.459899077519	410.325819747461	596.667735460161	984.402900862715	305.431231582553	662.906240494459	1031.839883887936	210.697431060784	603.873138039662	905.896330201024	42.444266160775	580.267168912508	1075.535464063737	98.913424680507	615.568759815980	989.297006910965	37.085845230940	655.337450701370	1196.245830535370	50.213409305552	644.153817848300	643.744838059779	84.386471817141	419.216637140661	711.913576061163	57.971028181664	339.613848440848	807.310897659137	102.470420179638	358.944667146017	918.338793681357	36.891329257241	333.749310522688	973.030915166598	1082.520200980813	187.309743901920	1164.824736897822	904.409295631593	178.049342662678	890.418435475612	1101.640839818766	779.067163878786	1029.167920650325	880.874869498599	785.267195342411	
37	9.143428571429	774.044784962964	998.619292463282	501.854202066584	944.726116195560	1431.290622064642	317.058198398753	1038.655135168792	1372.124008814250	486.135095533674	941.007043568472	1443.653609391347	653.500459043225	914.938441305815	1495.769912128573	471.636309366659	1004.217098555710	946.545588447300	627.197671977455	996.524978435041	965.279774964844	351.866702126628	1057.710800713677	748.051251218941	595.710716676717	984.341168127552	635.068297309887	660.068192743378	1063.252242958192	586.711019229946	578.877287265569	1068.456323030564	500.105863168770	586.323111824631	1025.521810511477	739.582021059816	375.043623190261	926.761709065711	630.210992895746	310.558995619822	1006.828361366209	541.967767826101	367.864321790246	996.950380034967	460.813593435159	366.115417323282	937.240502705614	401.774023629002	360.741919915873	805.242481491734	334.725942516081	315.990696974216	814.981591228946	205.881373645693	374.077008333449	1045.487580577850	410.022577320615	598.150102509411	980.083461463676	305.135689534936	663.808103821890	1027.014074826006	210.428186510324	604.450272912127	900.604404921827	42.406739388104	580.346173242778	1070.301650241056	98.834777482794	615.700549966813	984.010893428370	37.033845475278	655.446726266381	1191.008728889125	49.986307785721	644.193855993412	643.168630927392	96.408727475635	418.224543120838	709.537647133348	65.374707075533	339.035046398028	806.931978247621	104.935224047119	357.583435994822	913.134397631015	36.127575450800	333.728858704032	967.215662794626	1082.889814018756	191.513252562436	1150.650996670500	895.999036298708	180.884151272486	899.481746546273	1101.442857429412	783.945143072803	1046.553921278836	886.262197859066	787.526326362618	
38	9.156857142857	774.645639305092	998.972324263735	506.041230492906	942.858313360388	1432.118972311278	320.264452528827	1038.614619890297	1372.889494125107	488.293150251835	942.587447858586	1443.987526823116	656.718082190730	914.478272761146	1496.264199938433	475.178680219288	1005.658614242997	947.219364176736	629.523430713714	995.791781362430	965.712318661997	354.556257414440	1056.949654284322	747.440605776224	598.577911083070	982.190529952476	635.148989657922	662.497950923157	1060.465543606227	586.133032423916	581.205462259122	1064.719333096300	499.656973927628	588.173141199353	1030.438016300075	741.730807178338	377.604157804450	936.204948446980	630.266304041200	311.893145876309	1019.192743012236	543.544391894343	368.845244814400	1010.380308552328	461.055168320434	365.884425500707	948.413695053588	402.244078839101	360.673762555413	814.021243086184	340.045175124920	316.119076200667	819.485700151608	210.702340696075	373.091958608912	1041.490587667619	409.680359127634	599.713781605780	975.764726139644	304.784254108071	664.794246541430	1022.170484174284	210.120287911917	605.067095734708	895.279721473729	42.383682338115	580.429691264822	1065.054618728661	98.712632942516	615.849416300196	978.690037255084	36.963468552365	655.552817265156	1185.756971209855	49.647416713565	644.245484138317	643.698113991488	110.011776255637	417.190565239800	707.917602343455	74.213474449024	338.416517718566	807.238440069177	108.088622701529	356.336217662981	907.922630897757	35.214740215426	333.768993330006	961.288784849983	1083.033039613718	195.680620428781	1135.808930031894	887.622823865387	183.932918582599	908.639949900209	1101.391538161091	788.774971213876	1064.273108229263	892.516922659173	789.385933065794	
39	9.170285714286	775.083113617814	999.171981327156	510.216269760970	940.966162780984	1432.651224709033	323.334425134610	1038.589571426632	1373.392773535387	490.297512602397	944.278974466368	1444.156154604974	659.779362961051	914.086222942873	1496.551582503276	478.562134285614	1006.891742128451	947.672190974634	631.816038218095	994.826352900800	965.843455593147	357.220825144397	1056.143484558754	746.817288800024	601.369890746407	980.141561763442	635.169276646189	664.934223629755	1057.760674771341	585.552199517042	583.511777463600	1061.087766145925	499.178477223927	590.080899770134	1035.397639869732	744.067042930266	380.213919791262	946.132542883325	630.542296906887	313.062074511995	1031.900242551155	545.580818259778	369.876303514384	1024.336173546425	461.858620980215	365.848713783300	960.368051199927	403.081055827115	360.707622053500	823.822819111676	345.749508742467	316.140362837203	824.907593522032	216.151174073786	372.248792983723	1037.598941394247	409.287911721892	601.300854785116	971.561078781076	304.392513105304	665.850239582223	1017.379668510411	209.768835238281	605.696730427339	889.929817240683	42.376789914527	580.532512200909	1059.802542862263	98.555189720520	616.011684105261	973.343668610739	36.881878966981	655.663437777374	1180.499248701327	49.213308039745	644.316692734612	645.376566847336	124.962719228890	416.197138997598	707.148905862342	84.422986211621	337.812560808434	808.231698214488	112.002594927812	355.298443817308	902.816110162592	34.164469197376	333.865642419988	955.228446987938	1082.892753778354	199.816752594421	1120.364974357709	879.359707827908	187.187934832588	917.880839778560	1101.451391816799	793.517167054022	1082.232690893110	899.650454822693	790.812956401625	
40	9.183714285714	775.354385586405	999.206844758583	514.345870748758	939.085372909054	1432.880933463909	326.239387595216	1038.581026231248	1373.620713534484	492.135367382780	946.060362860079	1444.159861695425	662.658681906577	913.789492299439	1496.641315331116	481.749524626389	1007.911468020321	947.900952212570	634.050135079914	993.663541199053	965.702115994414	359.802201291060	1055.352536225307	746.209133419229	603.988786841216	978.308797477474	635.130629510601	667.319373266065	1055.236984282200	584.978419912851	585.712074001870	1057.679083048204	498.662136126667	591.971886978235	1040.279924021058	746.619646067532	382.837127741185	956.297767897260	631.109083455943	314.101904379057	1044.669345398091	548.132909552723	370.973395927773	1038.557489149696	463.284165544626	366.043993799095	972.853335256996	404.340694197508	360.895360058913	834.414121223132	351.783755617991	316.128527924113	831.127291853876	222.149768715368	371.636481717332	1033.906380392007	408.839986452091	602.851946436180	967.547183468674	303.977273304469	666.945293921640	1012.692837233161	209.376077145385	606.310374513093	884.564001860227	42.384842957552	580.662685007844	1054.551687128226	98.375503103062	616.181114563475	967.981512091916	36.796653171341	655.780696351981	1175.242011094044	48.713137717863	644.412771798465	648.204194712277	140.877486223998	415.339061190881	707.320440681795	95.799848385686	337.284882610113	809.924788284678	116.690880464496	354.545073301056	898.006177084901	33.027595731757	334.001716525576	949.010828557476	1082.444829848601	203.937705222927	1104.382370093120	871.291204900814	190.641844206414	927.207984664728	1101.605840250764	798.124228544575	1100.322061415343	907.665328755814	791.778193758671	
